<svg width="126" height="10" viewBox="0 0 126 10" fill="none" xmlns="http://www.w3.org/2000/svg">
<g clip-path="url(#clip0)">
<path d="M1.71661 6.50363C1.71661 7.87209 2.32973 8.59012 3.39229 8.59012C4.44169 8.59012 5.04094 7.87209 5.04094 6.50363V0H6.77143V6.50363C6.77143 8.63081 5.57221 9.99927 3.39229 9.99927C1.19921 10 0 8.63154 0 6.50363H1.71661Z" fill="black"/>
<path d="M15.7687 0V1.43605H10.5093V4.06468H15.4823V5.48765H10.5093V8.37355H15.7687V9.8234H8.77881V0H15.7687Z" fill="black"/>
<path d="M20.6938 5.69113H19.0181V9.82413H17.2876V0H20.4351C23.3509 0 24.8358 0.650436 24.8358 2.83212C24.8358 4.0923 24.2088 4.94622 22.9826 5.36555L25.2444 9.8234H23.2961L21.2112 5.67732C21.0482 5.69113 20.8706 5.69113 20.6938 5.69113ZM19.0181 4.32267H20.7347C22.2196 4.32267 23.0644 4.02471 23.0644 2.84593C23.0644 1.55887 22.0428 1.38227 20.6799 1.38227H19.0174V4.32267H19.0181Z" fill="black"/>
<path d="M33.5246 0V1.43605H28.2652V4.06468H33.2381V5.48765H28.2652V8.37355H33.5246V9.8234H26.5347V0H33.5246Z" fill="black"/>
<path d="M36.7325 1.86991V9.8234H35.043V0H37.7271L40.1248 7.83212L42.5094 0H45.1935V9.8234H43.504V1.86991L40.9967 9.8234H39.2391L36.7325 1.86991Z" fill="black"/>
<path d="M50.6832 4.39026L53.2037 0H55.1519L51.5141 6.0298V9.82413H49.7836V6.00291L46.2554 0H48.2314L50.6832 4.39026Z" fill="black"/>
<path d="M59.6905 0C58.7909 1.44985 58.2867 3.0625 58.2867 4.89171C58.2867 6.74782 58.7909 8.36046 59.6905 9.82413H58.5139C57.7649 8.64535 57.002 6.992 57.002 4.89171C57.002 2.79142 57.7649 1.17951 58.5139 0H59.6905Z" fill="black"/>
<path d="M97.8907 0C98.6398 1.17878 99.4027 2.79142 99.4027 4.89171C99.4027 6.992 98.6398 8.64535 97.8907 9.82413H96.7148C97.6144 8.36046 98.1187 6.74854 98.1187 4.89171C98.1187 3.0625 97.6144 1.44985 96.7148 0H97.8907Z" fill="black"/>
<path d="M61.8067 6.50363C61.8067 7.87209 62.4198 8.59012 63.4824 8.59012C64.5318 8.59012 65.131 7.87209 65.131 6.50363V0H66.8615V6.50363C66.8615 8.63081 65.6623 9.99927 63.4824 9.99927C61.2886 9.99927 60.0894 8.63081 60.0894 6.50363H61.8067Z" fill="black"/>
<path d="M70.5012 5.79942C70.5012 7.60174 70.9784 8.59084 72.8178 8.59084C74.6301 8.59084 75.1205 7.54724 75.1205 5.74564V0H76.851V5.67733C76.851 8.78052 75.6927 10 72.8178 10C69.9838 10 68.7715 8.90262 68.7715 5.73183V0H70.502V5.79942H70.5012Z" fill="black"/>
<path d="M87.0033 4.9048C87.0033 8.7391 84.6188 9.8234 81.4852 9.8234H78.7871V0H81.4852C84.6195 0 87.0033 1.07049 87.0033 4.9048ZM80.5183 1.38227V8.44186H81.404C83.2982 8.44186 85.2056 8.0218 85.2056 4.90552C85.2056 1.80233 83.2982 1.38227 81.404 1.38227H80.5183Z" fill="black"/>
<path d="M95.6008 0V1.43605H90.3413V4.06468H95.3143V5.48765H90.3413V8.37355H95.6008V9.8234H88.6108V0H95.6008Z" fill="black"/>
<path d="M109.425 8.37355V9.8234H102.722V0H104.452V8.37355H109.425Z" fill="black"/>
<path d="M117.492 0V1.43605H112.233V4.06468H117.206V5.48765H112.233V8.37355H117.492V9.8234H110.502V0H117.492Z" fill="black"/>
<path d="M126 0V1.43605H120.741V4.06468H125.714V5.48765H120.741V8.37355H126V9.8234H119.01V0H126Z" fill="black"/>
</g>
<defs>
<clipPath id="clip0">
<rect width="126" height="10" fill="white"/>
</clipPath>
</defs>
</svg>
