<svg width="40" height="13" viewBox="0 0 40 13" fill="none" xmlns="http://www.w3.org/2000/svg">
<g clip-path="url(#clip0)">
<path d="M3.40311 0C2.26395 1.86752 1.62789 3.94215 1.62789 6.29653C1.62789 8.68725 2.26754 10.7619 3.40311 12.6439H1.91537C0.96667 11.1288 0 8.99972 0 6.29653C0 3.59335 0.96667 1.51873 1.91537 0H3.40311Z" fill="black"/>
<path d="M38.0848 0C39.0335 1.51873 40.0002 3.59335 40.0002 6.29653C40.0002 8.99972 39.0335 11.1288 38.0848 12.6439H36.597C37.7362 10.7619 38.3723 8.68362 38.3723 6.29653C38.3723 3.94215 37.7326 1.86752 36.597 0H38.0848Z" fill="black"/>
<path d="M4.38391 8.51284H6.55083C6.55083 10.2714 7.32345 11.1906 8.66744 11.1906C9.98988 11.1906 10.7481 10.2677 10.7481 8.51284V0.163483H12.933V8.51284C12.933 11.2451 11.4201 13 8.66744 13C5.8968 13 4.38391 11.2451 4.38391 8.51284Z" fill="black"/>
<path d="M14.9596 8.51284H17.1265C17.1265 10.2714 17.8991 11.1906 19.2431 11.1906C20.5656 11.1906 21.3238 10.2677 21.3238 8.51284V0.163483H23.5087V8.51284C23.5087 11.2451 21.9958 13 19.2431 13C16.4725 13 14.9596 11.2451 14.9596 8.51284Z" fill="black"/>
<path d="M26.5814 0.163483V12.7747H35.0407V10.9145H28.7663V0.163483H26.5814Z" fill="black"/>
</g>
<defs>
<clipPath id="clip0">
<rect width="40" height="13" fill="white"/>
</clipPath>
</defs>
</svg>
